<?xml version="1.0" standalone="no"?>
<svg xmlns:xlink="http://www.w3.org/1999/xlink" id="wave" style="transform:rotate(0deg); transition: 0.3s" viewBox="0 0 1440 200" version="1.1" xmlns="http://www.w3.org/2000/svg"><defs><linearGradient id="sw-gradient-0" x1="0" x2="0" y1="1" y2="0"><stop stop-color="rgba(30, 255, 0, 1)" offset="0%"/><stop stop-color="rgba(0, 77, 10, 1)" offset="100%"/></linearGradient></defs><path style="transform:translate(0, 0px); opacity:1" fill="url(#sw-gradient-0)" d="M0,100L21.8,83.3C43.6,67,87,33,131,23.3C174.5,13,218,27,262,36.7C305.5,47,349,53,393,60C436.4,67,480,73,524,80C567.3,87,611,93,655,83.3C698.2,73,742,47,785,50C829.1,53,873,87,916,93.3C960,100,1004,80,1047,80C1090.9,80,1135,100,1178,106.7C1221.8,113,1265,107,1309,86.7C1352.7,67,1396,33,1440,33.3C1483.6,33,1527,67,1571,73.3C1614.5,80,1658,60,1702,63.3C1745.5,67,1789,93,1833,96.7C1876.4,100,1920,80,1964,63.3C2007.3,47,2051,33,2095,40C2138.2,47,2182,73,2225,83.3C2269.1,93,2313,87,2356,83.3C2400,80,2444,80,2487,96.7C2530.9,113,2575,147,2618,140C2661.8,133,2705,87,2749,63.3C2792.7,40,2836,40,2880,50C2923.6,60,2967,80,3011,100C3054.5,120,3098,140,3120,150L3141.8,160L3141.8,200L3120,200C3098.2,200,3055,200,3011,200C2967.3,200,2924,200,2880,200C2836.4,200,2793,200,2749,200C2705.5,200,2662,200,2618,200C2574.5,200,2531,200,2487,200C2443.6,200,2400,200,2356,200C2312.7,200,2269,200,2225,200C2181.8,200,2138,200,2095,200C2050.9,200,2007,200,1964,200C1920,200,1876,200,1833,200C1789.1,200,1745,200,1702,200C1658.2,200,1615,200,1571,200C1527.3,200,1484,200,1440,200C1396.4,200,1353,200,1309,200C1265.5,200,1222,200,1178,200C1134.5,200,1091,200,1047,200C1003.6,200,960,200,916,200C872.7,200,829,200,785,200C741.8,200,698,200,655,200C610.9,200,567,200,524,200C480,200,436,200,393,200C349.1,200,305,200,262,200C218.2,200,175,200,131,200C87.3,200,44,200,22,200L0,200Z"/><defs><linearGradient id="sw-gradient-1" x1="0" x2="0" y1="1" y2="0"><stop stop-color="rgba(30, 255, 0, 1)" offset="0%"/><stop stop-color="rgba(0, 77, 10, 1)" offset="100%"/></linearGradient></defs><path style="transform:translate(0, 50px); opacity:0.9" fill="url(#sw-gradient-1)" d="M0,160L21.8,150C43.6,140,87,120,131,123.3C174.5,127,218,153,262,143.3C305.5,133,349,87,393,76.7C436.4,67,480,93,524,93.3C567.3,93,611,67,655,50C698.2,33,742,27,785,20C829.1,13,873,7,916,16.7C960,27,1004,53,1047,53.3C1090.9,53,1135,27,1178,23.3C1221.8,20,1265,40,1309,43.3C1352.7,47,1396,33,1440,46.7C1483.6,60,1527,100,1571,113.3C1614.5,127,1658,113,1702,110C1745.5,107,1789,113,1833,110C1876.4,107,1920,93,1964,83.3C2007.3,73,2051,67,2095,63.3C2138.2,60,2182,60,2225,70C2269.1,80,2313,100,2356,93.3C2400,87,2444,53,2487,50C2530.9,47,2575,73,2618,83.3C2661.8,93,2705,87,2749,86.7C2792.7,87,2836,93,2880,86.7C2923.6,80,2967,60,3011,53.3C3054.5,47,3098,53,3120,56.7L3141.8,60L3141.8,200L3120,200C3098.2,200,3055,200,3011,200C2967.3,200,2924,200,2880,200C2836.4,200,2793,200,2749,200C2705.5,200,2662,200,2618,200C2574.5,200,2531,200,2487,200C2443.6,200,2400,200,2356,200C2312.7,200,2269,200,2225,200C2181.8,200,2138,200,2095,200C2050.9,200,2007,200,1964,200C1920,200,1876,200,1833,200C1789.1,200,1745,200,1702,200C1658.2,200,1615,200,1571,200C1527.3,200,1484,200,1440,200C1396.4,200,1353,200,1309,200C1265.5,200,1222,200,1178,200C1134.5,200,1091,200,1047,200C1003.6,200,960,200,916,200C872.7,200,829,200,785,200C741.8,200,698,200,655,200C610.9,200,567,200,524,200C480,200,436,200,393,200C349.1,200,305,200,262,200C218.2,200,175,200,131,200C87.3,200,44,200,22,200L0,200Z"/><defs><linearGradient id="sw-gradient-2" x1="0" x2="0" y1="1" y2="0"><stop stop-color="rgba(30, 255, 0, 1)" offset="0%"/><stop stop-color="rgba(0, 77, 10, 1)" offset="100%"/></linearGradient></defs><path style="transform:translate(0, 100px); opacity:0.8" fill="url(#sw-gradient-2)" d="M0,160L21.8,153.3C43.6,147,87,133,131,113.3C174.5,93,218,67,262,50C305.5,33,349,27,393,33.3C436.4,40,480,60,524,73.3C567.3,87,611,93,655,93.3C698.2,93,742,87,785,76.7C829.1,67,873,53,916,70C960,87,1004,133,1047,156.7C1090.9,180,1135,180,1178,166.7C1221.8,153,1265,127,1309,120C1352.7,113,1396,127,1440,120C1483.6,113,1527,87,1571,83.3C1614.5,80,1658,100,1702,106.7C1745.5,113,1789,107,1833,116.7C1876.4,127,1920,153,1964,146.7C2007.3,140,2051,100,2095,96.7C2138.2,93,2182,127,2225,116.7C2269.1,107,2313,53,2356,50C2400,47,2444,93,2487,110C2530.9,127,2575,113,2618,96.7C2661.8,80,2705,60,2749,70C2792.7,80,2836,120,2880,120C2923.6,120,2967,80,3011,80C3054.5,80,3098,120,3120,140L3141.8,160L3141.8,200L3120,200C3098.2,200,3055,200,3011,200C2967.3,200,2924,200,2880,200C2836.4,200,2793,200,2749,200C2705.5,200,2662,200,2618,200C2574.5,200,2531,200,2487,200C2443.6,200,2400,200,2356,200C2312.7,200,2269,200,2225,200C2181.8,200,2138,200,2095,200C2050.9,200,2007,200,1964,200C1920,200,1876,200,1833,200C1789.1,200,1745,200,1702,200C1658.2,200,1615,200,1571,200C1527.3,200,1484,200,1440,200C1396.4,200,1353,200,1309,200C1265.5,200,1222,200,1178,200C1134.5,200,1091,200,1047,200C1003.6,200,960,200,916,200C872.7,200,829,200,785,200C741.8,200,698,200,655,200C610.9,200,567,200,524,200C480,200,436,200,393,200C349.1,200,305,200,262,200C218.2,200,175,200,131,200C87.3,200,44,200,22,200L0,200Z"/><defs><linearGradient id="sw-gradient-3" x1="0" x2="0" y1="1" y2="0"><stop stop-color="rgba(30, 255, 0, 1)" offset="0%"/><stop stop-color="rgba(0, 77, 10, 1)" offset="100%"/></linearGradient></defs><path style="transform:translate(0, 150px); opacity:0.7" fill="url(#sw-gradient-3)" d="M0,20L21.8,20C43.6,20,87,20,131,36.7C174.5,53,218,87,262,83.3C305.5,80,349,40,393,36.7C436.4,33,480,67,524,66.7C567.3,67,611,33,655,33.3C698.2,33,742,67,785,93.3C829.1,120,873,140,916,140C960,140,1004,120,1047,103.3C1090.9,87,1135,73,1178,73.3C1221.8,73,1265,87,1309,93.3C1352.7,100,1396,100,1440,106.7C1483.6,113,1527,127,1571,130C1614.5,133,1658,127,1702,116.7C1745.5,107,1789,93,1833,73.3C1876.4,53,1920,27,1964,20C2007.3,13,2051,27,2095,46.7C2138.2,67,2182,93,2225,113.3C2269.1,133,2313,147,2356,150C2400,153,2444,147,2487,140C2530.9,133,2575,127,2618,123.3C2661.8,120,2705,120,2749,126.7C2792.7,133,2836,147,2880,126.7C2923.6,107,2967,53,3011,36.7C3054.5,20,3098,40,3120,50L3141.8,60L3141.8,200L3120,200C3098.2,200,3055,200,3011,200C2967.3,200,2924,200,2880,200C2836.4,200,2793,200,2749,200C2705.5,200,2662,200,2618,200C2574.5,200,2531,200,2487,200C2443.6,200,2400,200,2356,200C2312.7,200,2269,200,2225,200C2181.8,200,2138,200,2095,200C2050.9,200,2007,200,1964,200C1920,200,1876,200,1833,200C1789.1,200,1745,200,1702,200C1658.2,200,1615,200,1571,200C1527.3,200,1484,200,1440,200C1396.4,200,1353,200,1309,200C1265.5,200,1222,200,1178,200C1134.5,200,1091,200,1047,200C1003.6,200,960,200,916,200C872.7,200,829,200,785,200C741.8,200,698,200,655,200C610.9,200,567,200,524,200C480,200,436,200,393,200C349.1,200,305,200,262,200C218.2,200,175,200,131,200C87.3,200,44,200,22,200L0,200Z"/></svg>